<?xml version="1.0" encoding="UTF-8" standalone="no"?>
<!-- Created with Inkscape (http://www.inkscape.org/) -->

<svg
   xmlns:dc="http://purl.org/dc/elements/1.1/"
   xmlns:cc="http://creativecommons.org/ns#"
   xmlns:rdf="http://www.w3.org/1999/02/22-rdf-syntax-ns#"
   xmlns:svg="http://www.w3.org/2000/svg"
   xmlns="http://www.w3.org/2000/svg"
   xmlns:sodipodi="http://sodipodi.sourceforge.net/DTD/sodipodi-0.dtd"
   xmlns:inkscape="http://www.inkscape.org/namespaces/inkscape"
   width="299.40625"
   height="410"
   id="svg2"
   version="1.1"
   inkscape:version="0.48.4 r9939"
   sodipodi:docname="legacy-ip-only.svg">
  <title
     id="title4198">CAUTION: Legacy IP Only</title>
  <defs
     id="defs4">
    <clipPath
       id="clipPath3945"
       clipPathUnits="userSpaceOnUse">
      <path
         id="path3947"
         d="M 0,6045.7 0,0 l 6045.66,0 0,6045.7 -6045.66,0 z"
         inkscape:connector-curvature="0" />
    </clipPath>
  </defs>
  <sodipodi:namedview
     id="base"
     pagecolor="#ffffff"
     bordercolor="#666666"
     borderopacity="1.0"
     inkscape:pageopacity="0.0"
     inkscape:pageshadow="2"
     inkscape:zoom="1.4"
     inkscape:cx="101.40587"
     inkscape:cy="178.81087"
     inkscape:document-units="px"
     inkscape:current-layer="layer1"
     showgrid="false"
     inkscape:window-width="1920"
     inkscape:window-height="1056"
     inkscape:window-x="1920"
     inkscape:window-y="24"
     inkscape:window-maximized="1"
     fit-margin-top="0"
     fit-margin-left="0"
     fit-margin-right="0"
     fit-margin-bottom="0" />
  <metadata
     id="metadata7">
    <rdf:RDF>
      <cc:Work
         rdf:about="">
        <dc:format>image/svg+xml</dc:format>
        <dc:type
           rdf:resource="http://purl.org/dc/dcmitype/StillImage" />
        <dc:title>CAUTION: Legacy IP Only</dc:title>
        <dc:creator>
          <cc:Agent>
            <dc:title>Phil Benchoff, Juerd Waalboer</dc:title>
          </cc:Agent>
        </dc:creator>
        <dc:rights>
          <cc:Agent>
            <dc:title />
          </cc:Agent>
        </dc:rights>
        <dc:description>Some small changes from Phil's original version: font, s/of/of the/, vector based image, different aspect ratio</dc:description>
        <dc:source>https://secure.flickr.com/photos/n3pb/9138035991/</dc:source>
        <cc:license
           rdf:resource="http://creativecommons.org/licenses/by/2.0/" />
      </cc:Work>
      <cc:License
         rdf:about="http://creativecommons.org/licenses/by/3.0/">
        <cc:permits
           rdf:resource="http://creativecommons.org/ns#Reproduction" />
        <cc:permits
           rdf:resource="http://creativecommons.org/ns#Distribution" />
        <cc:requires
           rdf:resource="http://creativecommons.org/ns#Notice" />
        <cc:requires
           rdf:resource="http://creativecommons.org/ns#Attribution" />
        <cc:permits
           rdf:resource="http://creativecommons.org/ns#DerivativeWorks" />
      </cc:License>
    </rdf:RDF>
  </metadata>
  <g
     inkscape:label="Laag 1"
     inkscape:groupmode="layer"
     id="layer1"
     transform="translate(-318.6875,-315.9375)">
    <path
       style="opacity:0.98999999;fill:#f9d716;fill-opacity:1;stroke:#ff0000;stroke-width:0;stroke-miterlimit:4;stroke-dasharray:none"
       d="m 324.68021,401.20901 0,-62.84681 c 0,-9.10143 7.32715,-16.42858 16.42856,-16.42858 l 0,0 254.57146,0 c 9.10144,0 16.42858,7.32715 16.42858,16.42858 l -2e-5,62.84679"
       id="path3865"
       inkscape:connector-curvature="0"
       sodipodi:nodetypes="csccssc" />
    <path
       style="font-size:medium;font-style:normal;font-variant:normal;font-weight:normal;font-stretch:normal;text-indent:0;text-align:start;text-decoration:none;line-height:normal;letter-spacing:normal;word-spacing:normal;text-transform:none;direction:ltr;block-progression:tb;writing-mode:lr-tb;text-anchor:start;baseline-shift:baseline;color:#000000;fill:#000000;fill-opacity:1;stroke:none;stroke-width:10;marker:none;visibility:visible;display:inline;overflow:visible;enable-background:accumulate;font-family:Sans;-inkscape-font-specification:Sans"
       d="m 340.09375,315.9375 c -11.78494,0 -21.40625,9.65255 -21.40625,21.4375 l 0,367.125 c 0,11.78495 9.62131,21.4375 21.40625,21.4375 l 256.59375,0 c 11.78494,0 21.40625,-9.65256 21.40625,-21.4375 l 0,-367.125 c 0,-11.78494 -9.6213,-21.4375 -21.40625,-21.4375 l -256.59375,0 z m 0,10 256.59375,0 c 6.41791,0 11.40625,5.01958 11.40625,11.4375 l 0,58.4375 -279.40625,0 0,-58.4375 c 0,-6.41791 4.98835,-11.4375 11.40625,-11.4375 z m -11.40625,79.875 279.40625,0 0,150.125 -279.40625,0 0,-150.125 z m 0,160.125 279.40625,0 0,138.5625 c 0,6.41792 -4.98833,11.4375 -11.40625,11.4375 l -256.59375,0 c -6.4179,0 -11.40625,-5.01959 -11.40625,-11.4375 l 0,-138.5625 z"
       id="path3854"
       inkscape:connector-curvature="0" />
    <g
       id="g3958"
       transform="matrix(0.99195056,0,0,0.99195056,73.144269,2.8992818)">
      <path
         inkscape:connector-curvature="0"
         id="path3887"
         d="m 295.7101,340.48661 -22.75,39.39574 45.5,0 -22.75,-39.39574 z m -2.20636,10.63955 4.43723,0 0,7.6487 -1.20124,8.94801 -2.05926,0 -1.17673,-8.94801 0,-7.6487 z m 0,20.12688 4.43723,0 0,4.26563 -4.43723,0 0,-4.26563 z"
         style="opacity:0.98999999;fill:#000000;fill-opacity:1;stroke:#ff0000;stroke-width:0;stroke-miterlimit:4;stroke-opacity:1" />
      <text
         xml:space="preserve"
         style="font-size:40.32458878px;font-style:normal;font-weight:normal;line-height:125%;letter-spacing:0px;word-spacing:0px;fill:#000000;fill-opacity:1;stroke:none;font-family:Sans"
         x="323.64838"
         y="374.9852"
         id="text3092"
         sodipodi:linespacing="125%"><tspan
           sodipodi:role="line"
           id="tspan3094"
           x="323.64838"
           y="374.9852"
           style="font-weight:bold;-inkscape-font-specification:Sans Bold">CAUTION</tspan></text>
    </g>
    <g
       transform="matrix(0.66213128,0,0,-0.66213128,273.35844,680.72688)"
       inkscape:label="ink_ext_XXXXXX"
       id="g3937"
       style="fill:#000000">
      <g
         transform="scale(0.1,0.1)"
         id="g3939"
         style="fill:#000000">
        <g
           id="g3941"
           style="fill:#000000">
          <g
             clip-path="url(#clipPath3945)"
             id="g3943"
             style="fill:#000000">
            <path
               id="path3949"
               style="fill:#000000;fill-opacity:1;fill-rule:evenodd;stroke:none"
               d="m 3400.84,2247.25 c -59.61,3.25 -113.93,27.32 -155.7,64.96 l 155.7,155.69 0,-220.65 z m -770.45,626.19 61.64,-13.39 -2.67,35.4 -1.47,57.94 10.02,69.68 -1.82,43.38 -14.96,46.73 -21.6,28 -29.88,16.43 -30.45,7.66 16.6,-23.39 19.06,-50.35 5.96,-31.41 0,-35.03 -3.02,-68.67 -5.94,-72.56 -1.47,-10.42 z m 66.11,-41.57 -69.78,15.2 -4.56,-32.84 0,-34.72 3.35,-15.84 15.31,-25.25 13.11,-15.79 18.65,-12.23 34.69,-16.1 31.83,-16.43 5.86,-7.02 3.75,-30.03 21.99,-81.7 25.41,-70.53 25,-52.63 19.79,-29.78 20.27,-22.54 10.67,-13.33 2.59,-16.05 -3.74,-16.43 3.74,-10.43 8.25,-4.14 8.63,3.78 5.94,4.36 19.04,4.94 15.31,-2.97 16.47,-15.62 8.14,-19.89 8.61,-24.24 6.37,-34.39 0,-19.31 -7.83,-9.34 -77.34,38.43 -10.76,14.51 -8.95,16.42 -11.97,12.06 -14.91,7.03 -17.18,4.83 -13.11,7.87 -10.76,12.97 -10.59,28.01 -26.04,61.3 -31.36,63.78 -26.46,48.9 -18.32,29.18 -17.19,21.33 -29.49,26.88 -26.06,20.84 -28.83,28.02 -53.34,47.36 -44.37,28.72 -31.58,25.61 -4.65,-18.45 0,-39.97 5.2,-40.03 16.77,-39.86 4.65,-29.81 1.39,-12.35 -3.42,-9.72 -31.35,-27.65 -101.88,-86.16 -39.17,-43.8 -25.73,-31.25 -14.99,-25.73 -8.56,-13.88 -12.29,-7.13 -11.64,-1.44 -3.03,-4.45 6.06,-10.42 9.26,-11.54 3.43,-15.84 -1.89,-13.28 -1.86,-11.59 -37.71,-26.21 -27.6,-13.66 -21.33,-5.74 -14.17,3.72 0,8.18 13.84,60.87 5.22,10.09 11.23,22.34 7.83,16.1 0.31,16.74 3.42,25.15 12.29,17.11 24.68,20.46 30.94,27.7 18.24,16.85 33.15,37.27 38.11,46.67 18.74,26.79 5.94,34.02 -8.14,23.6 -21.66,51.13 -16.46,39.93 -11.55,31.78 -13.85,61.57 -2.03,67.29 -62.87,-28.23 -69.47,-24.93 -88.02,-25.09 -107.59,-31.72 -52.93,-9.32 -53.99,-0.15 -7.57,-81.56 -6.37,-58.2 -1.93,-81.38 6.83,-36.52 13.85,-23.59 20.67,-17.92 35.58,-26.9 36.9,-24.24 17.28,-16.74 4.06,-12.82 2.93,-16.04 10.84,-8.52 11.96,1.18 7.82,7.34 16.78,8.03 11.98,-2.4 19.76,-14.15 23.96,-26.83 17.51,-39.88 3,-15.36 -6.34,-6 -18.73,-0.31 -42.59,5.15 -25.33,8.5 -22.38,10.1 -24.2,15.37 -14.98,10.85 -20.52,20.08 -21.02,23.92 -39.82,41.03 -51.88,43.6 -25.41,22.22 -11.14,16.21 -7.08,23.23 -3.34,39.18 c -5.16,25.78 -3.5,19.56 -6.77,39.92 l -2.28,18.44 -7.48,48.53 -8.24,56.29 -9.7,72.88 -26.86,10.11 -1.15,-12.12 -15.94,-11.21 -62.71,-50.35 c -26.62,-14.14 -51.47,-27.48 -76.96,-43.33 l -25.33,-19.72 -33.62,-26.47 -19.8,-18.28 -16.77,-24.77 -15.32,-31.27 -18.3,-46.24 -7.83,-43.32 0,-31.79 -4.48,-29.82 -5.21,-21.58 -8.22,-7.54 -5.62,-12.45 3.42,-16.68 7.81,-5.59 6.36,-27.32 1.14,-17.91 -13.85,-21.21 -28.01,-22.76 -28.77,-13.91 -23.51,-5.81 -11.56,4.05 1.87,16.79 11.23,57.78 9.28,13.92 7.5,18.98 0.97,19.35 -0.23,27.7 4.45,30.72 24.3,71.93 9.61,38.42 17.99,80.33 5.62,28.06 11.56,15.9 16.45,16.42 10.43,10.1 13.58,17.17 69.31,105.36 22.38,31.58 5.96,10.89 0,7.5 -56.76,101.53 -3.34,21.58 3.34,34.66 9.38,41.15 0,28.32 -34.71,91.17 -29.56,98.81 c -22.96,-26.36 -60.26,-50.28 -112.94,-36.94 -21.17,3.24 -36.97,12.22 -58.22,15.68 l -47.07,23.44 -16.94,29.66 -11.07,-3.4 -6.45,0.75 -11.56,3.35 -16.37,8.55 -27.28,8.61 -3.02,9.79 -7.8,0.63 -6.37,11.59 -1.87,19.09 0,9.72 3.02,15.21 1.15,16.95 5.2,14.4 16.04,10.21 19.79,9.2 63.76,57.93 29.88,31 1.16,15.31 8.22,8.98 17.52,9.3 42.99,30.62 31.66,20.84 -3.32,6.01 -22,31.79 -9.35,18.6 0,19.4 5.94,3.03 15.54,-12.71 16.55,-16.14 22.05,-9.26 -6.74,22.48 -2.93,21.96 6.01,9.57 13.04,0 12.61,-15.9 19.06,-25.47 17.91,-15.56 12.71,-15.85 12.7,-18.86 256.45,-245.33 90.54,-51.29 c 47.56,2.03 55.13,-16.1 78.19,-22.01 l 452.29,8.35 30.11,-12.7 50.98,-11.91 69.8,-28.34 40.64,-21.57 37.72,-7.98 26.52,0 27.93,4.78 51.56,0 40.22,-13.34 48.3,-28.01 29.81,-25.04 29.47,-48.1 14.99,-58.26 11.88,-104.62 3.43,-62.94 6.34,-44.54 -2.19,-13.51 401.21,-85.84 c 42.19,28.55 92.03,46.41 145.78,49.75 l -3.9,905.85 -191.78,0 0,113.49 1437.23,0 0,-1061.22 c 88.28,-50.66 147.89,-145.76 147.89,-254.41 0,-161.5 -131.76,-293 -293.17,-293 -161.39,0 -293,131.5 -293,293 0,74.2 27.85,142.14 73.77,193.97 l -636.31,0 c 43.8,-51.3 70.35,-117.74 70.35,-190.25 0,-161.39 -131.6,-293 -292.99,-293 -161.33,0 -293.01,131.61 -293.01,293 0,88.77 39.74,168.35 102.28,222.14 l -368.49,74.58 14.89,-34.34 19.88,-38.49 23.12,-48.53 11.56,-44.76 -3.41,-44.74 -17.91,-28.33 -13.36,-6.87 -11.56,-10.11 -26.88,-36.08 -4.88,34.6 -20.2,49.7 -29.47,30.35 -28.34,34.67 -6.35,38.36 -3.36,39.94 -13.51,35.19 -28.26,41.35 -18.31,8.19 -2.95,14.4 z m -1277.46,465.29 c -33.38,-19.79 -70.43,-31.06 -113.67,-27.33 l -52.6,10.09 -28.1,19.46 -14.59,20.2 9.71,14.14 52.59,13.02 15.73,2.66 11.56,4.84 42.19,-4.09 26.13,3.4 20.12,6.69 6.75,2.94 4.08,-6.6 15.72,-47.41 c 2.68,-7.02 1.71,-5.06 4.38,-12.01 z M 4479.02,2243.32 c -59.6,3.4 -113.84,27.53 -155.7,65.17 l 155.7,155.63 0,-220.8 z m -174.25,83.72 c -37.64,41.89 -61.74,96.11 -64.98,155.71 l 220.68,0 -155.7,-155.71 z m -65.16,181.91 c 2.95,60.11 26.71,114.65 64.18,156.64 l 156.68,-156.64 -220.86,0 z m 82.73,175.41 c 2.29,2.28 4.9,4.46 7.35,6.54 l 149.33,0 0,-163.19 -156.68,156.65 z m 316.14,20.67 c 8.63,-5.95 16.94,-12.65 24.6,-19.67 l -157.67,-157.65 0,163.19 133.07,0 0,14.13 z m 43.32,-38.27 c 38.11,-42.15 62.15,-97.22 65.15,-157.81 l -222.97,0 157.82,157.81 z m 65,-184.01 c -3.26,-60.13 -27.85,-114.83 -65.97,-156.88 l -156.85,156.88 222.82,0 z m -84.71,-175.33 c -42.18,-37.58 -96.74,-61.34 -156.68,-64.1 l 0,220.8 156.68,-156.7 z m -1352.14,424.36 87.32,-17.28 -0.16,39.6 c -30.88,-2.28 -60.37,-9.94 -87.16,-22.32 z m 273.15,-40.88 -156.05,0 0,-159.47 157.83,157.87 c -0.64,0.43 -1.38,0.96 -1.78,1.6 z m -182.26,0 -7.81,0 -117.01,22.17 c -11.33,-7.5 -22.02,-15.84 -31.94,-24.78 l 156.76,-156.86 0,159.47 z m -174.26,-360.09 c -37.71,41.9 -61.76,96.06 -65.08,155.71 l 220.77,0 -155.69,-155.71 z m -65.15,182.06 c 2.77,59.91 26.54,114.45 64.08,156.65 l 156.76,-156.65 -220.84,0 z m 442.03,157.67 c 38.1,-42.21 62.38,-97.23 65.13,-157.67 l -222.96,0 157.83,157.67 z m 65.13,-184.02 c -3.41,-60.13 -27.85,-114.88 -66.12,-156.72 l -156.84,156.72 222.96,0 z m -84.86,-175.32 c -42.01,-37.43 -96.74,-61.34 -156.68,-64.11 l 0,220.81 156.68,-156.7 z m -154.08,1387.76 325.1,0 0,-721.29 -325.1,-110.93 0,832.22"
               inkscape:connector-curvature="0" />
          </g>
        </g>
      </g>
    </g>
    <text
       xml:space="preserve"
       style="font-size:40px;font-style:normal;font-weight:normal;line-height:125%;letter-spacing:0px;word-spacing:0px;fill:#000000;fill-opacity:1;stroke:none;font-family:Sans"
       x="345.68628"
       y="608.67328"
       id="text3092-8"
       sodipodi:linespacing="125%"><tspan
         sodipodi:role="line"
         id="tspan3094-8"
         x="345.68628"
         y="608.67328"
         style="font-size:29px;font-weight:bold;-inkscape-font-specification:Sans Bold">Legacy IP Only</tspan></text>
    <text
       xml:space="preserve"
       style="font-size:16.5px;font-style:normal;font-weight:normal;text-align:center;line-height:125%;letter-spacing:0px;word-spacing:0px;text-anchor:middle;fill:#000000;fill-opacity:1;stroke:none;font-family:Sans"
       x="467.88684"
       y="649.43604"
       id="text3177"
       sodipodi:linespacing="125%"><tspan
         sodipodi:role="line"
         id="tspan3179"
         x="467.88684"
         y="649.43604"
         style="font-size:16.5px">This product does not support</tspan><tspan
         sodipodi:role="line"
         x="467.88684"
         y="670.06104"
         id="tspan3181"
         style="font-size:16.5px">the current generation of the</tspan><tspan
         sodipodi:role="line"
         x="467.88684"
         y="690.68604"
         id="tspan3183"
         style="font-size:16.5px">Internet Protocol, IPv6.</tspan></text>
  </g>
</svg>
